<svg xmlns="http://www.w3.org/2000/svg" xmlns:xlink="http://www.w3.org/1999/xlink" style="margin:auto;background:#f1f2f3;display:block;z-index:1;position:relative" width="1728" height="1001" preserveAspectRatio="xMidYMid" viewBox="0 0 1728 1001">
<g transform="translate(864,500.5) scale(1,1) translate(-864,-500.5)"><path d="M-100 584.22C-65.26 581.78 -65.65 583.25 -37.81 583.25S-5.69 599.6 24.39 599.6S58.8 593.3 86.58 593.3S119.79 590.95 148.77 590.95S181.27 611.18 210.97 611.18S243.62 619.18 273.16 619.18S305.49 588.18 335.35 588.18S368.87 596.86 397.55 596.86S430.13 604.12 459.74 604.12S491.97 610.73 521.94 610.73S553.58 609.43 584.13 609.43S618.56 607.45 646.32 607.45S677.72 589.48 708.52 589.48S742.96 608.46 770.71 608.46S802.06 591.94 832.9 591.94S864.98 596.5 895.1 596.5S928.4 587.95 957.29 587.95S989.16 611.07 1019.48 611.07S1051.2 608.48 1081.68 608.48S1113.82 608.4 1143.87 608.4S1175.4 599.12 1206.06 599.12S1239.8 597.16 1268.26 597.16S1302.05 590.79 1330.45 590.79S1364.6 597.46 1392.65 597.46S1425.86 596.87 1454.84 596.87S1487.53 613.04 1517.03 613.04S1549.15 620.1 1579.23 620.1S1612.87 583.86 1641.42 583.86S1674.82 601.89 1703.61 601.89S1737.41 609.32 1765.81 609.32S1797.74 618.65 1828 618.65S1862.17 615.65 1890.19 615.65L1828 1001 L-100 1001 Z" fill="#a44e00" stroke-width="0">
  <animate attributeName="d" dur="31.428571428571427s" repeatCount="indefinite" values="M-100 584.22C-65.26 581.78 -65.65 583.25 -37.81 583.25S-5.69 599.6 24.39 599.6S58.8 593.3 86.58 593.3S119.79 590.95 148.77 590.95S181.27 611.18 210.97 611.18S243.62 619.18 273.16 619.18S305.49 588.18 335.35 588.18S368.87 596.86 397.55 596.86S430.13 604.12 459.74 604.12S491.97 610.73 521.94 610.73S553.58 609.43 584.13 609.43S618.56 607.45 646.32 607.45S677.72 589.48 708.52 589.48S742.96 608.46 770.71 608.46S802.06 591.94 832.9 591.94S864.98 596.5 895.1 596.5S928.4 587.95 957.29 587.95S989.16 611.07 1019.48 611.07S1051.2 608.48 1081.68 608.48S1113.82 608.4 1143.87 608.4S1175.4 599.12 1206.06 599.12S1239.8 597.16 1268.26 597.16S1302.05 590.79 1330.45 590.79S1364.6 597.46 1392.65 597.46S1425.86 596.87 1454.84 596.87S1487.53 613.04 1517.03 613.04S1549.15 620.1 1579.23 620.1S1612.87 583.86 1641.42 583.86S1674.82 601.89 1703.61 601.89S1737.41 609.32 1765.81 609.32S1797.74 618.65 1828 618.65S1862.17 615.65 1890.19 615.65L1828 1001 L-100 1001 Z;M-100 594.91C-65.5 581.86 -65.64 620.41 -37.81 620.41S-2.95 605.22 24.39 605.22S55.72 603.76 86.58 603.76S118.95 615.74 148.77 615.74S180.47 588.91 210.97 588.91S245.87 590.03 273.16 590.03S307.4 605.97 335.35 605.97S368.24 612.23 397.55 612.23S430 615.75 459.74 615.75S491.35 615.7 521.94 615.7S556.77 609.94 584.13 609.94S615.81 619.14 646.32 619.14S679.72 599.68 708.52 599.68S739.66 582.84 770.71 582.84S805.53 588.93 832.9 588.93S867.17 606.94 895.1 606.94S929.32 618.14 957.29 618.14S990.26 581 1019.48 581S1051.87 616.65 1081.68 616.65S1114.61 593.62 1143.87 593.62S1175.97 615.84 1206.06 615.84S1238.04 589.98 1268.26 589.98S1302.94 620.57 1330.45 620.57S1361.57 616.6 1392.65 616.6S1423.9 615.75 1454.84 615.75S1486.38 602.1 1517.03 602.1S1552.11 602.2 1579.23 602.2S1610.96 619.52 1641.42 619.52S1674.33 598.76 1703.61 598.76S1738.17 598.45 1765.81 598.45S1799.74 586.6 1828 586.6S1862.51 580.89 1890.19 580.89L1828 1001 L-100 1001 Z;M-100 584.22C-65.26 581.78 -65.65 583.25 -37.81 583.25S-5.69 599.6 24.39 599.6S58.8 593.3 86.58 593.3S119.79 590.95 148.77 590.95S181.27 611.18 210.97 611.18S243.62 619.18 273.16 619.18S305.49 588.18 335.35 588.18S368.87 596.86 397.55 596.86S430.13 604.12 459.74 604.12S491.97 610.73 521.94 610.73S553.58 609.43 584.13 609.43S618.56 607.45 646.32 607.45S677.72 589.48 708.52 589.48S742.96 608.46 770.71 608.46S802.06 591.94 832.9 591.94S864.98 596.5 895.1 596.5S928.4 587.95 957.29 587.95S989.16 611.07 1019.48 611.07S1051.2 608.48 1081.68 608.48S1113.82 608.4 1143.87 608.4S1175.4 599.12 1206.06 599.12S1239.8 597.16 1268.26 597.16S1302.05 590.79 1330.45 590.79S1364.6 597.46 1392.65 597.46S1425.86 596.87 1454.84 596.87S1487.53 613.04 1517.03 613.04S1549.15 620.1 1579.23 620.1S1612.87 583.86 1641.42 583.86S1674.82 601.89 1703.61 601.89S1737.41 609.32 1765.81 609.32S1797.74 618.65 1828 618.65S1862.17 615.65 1890.19 615.65L1828 1001 L-100 1001 Z"/>
  <animateTransform attributeName="transform" type="translate" dur="31.428571428571427s" begin="0s" repeatCount="indefinite" values="0;10;0" calcMode="spline" keySplines="0.3 0 0.7 1;0.3 0 0.7 1"/>
</path><path d="M-100 616.67C-67.03 619.26 -66.74 613.98 -36.31 613.98S-0.94 639.64 27.38 639.64S61.45 614.82 91.06 614.82S125.26 637.14 154.75 637.14S188.71 620.34 218.44 620.34S250.74 608.16 282.13 608.16S316.81 611.91 345.81 611.91S380.1 642.36 409.5 642.36S443.08 609.43 473.19 609.43S506.13 622.64 536.88 622.64S571.33 633.72 600.56 633.72S635.09 615.47 664.25 615.47S698.38 620.27 727.94 620.27S760.42 642.07 791.63 642.07S824.8 620.71 855.32 620.71S890.63 637.97 919 637.97S954.66 627.21 982.69 627.21S1015.26 623.44 1046.38 623.44S1081.73 622.79 1110.07 622.79S1145.3 642.12 1173.75 642.12S1208.11 624.68 1237.44 624.68S1271.4 634.14 1301.13 634.14S1335.72 635.37 1364.82 635.37S1399.44 637.56 1428.5 637.56S1462.77 620.38 1492.19 620.38S1524.43 627.13 1555.88 627.13S1591.35 644.2 1619.57 644.2S1652.79 617.32 1683.26 617.32S1717 609.85 1746.94 609.85S1778.83 613.02 1810.63 613.02S1846.11 642.43 1874.32 642.43L1828 1001 L-100 1001 Z" fill="#ac5608" stroke-width="0">
  <animate attributeName="d" dur="28.57142857142857s" repeatCount="indefinite" values="M-100 616.67C-67.03 619.26 -66.74 613.98 -36.31 613.98S-0.94 639.64 27.38 639.64S61.45 614.82 91.06 614.82S125.26 637.14 154.75 637.14S188.71 620.34 218.44 620.34S250.74 608.16 282.13 608.16S316.81 611.91 345.81 611.91S380.1 642.36 409.5 642.36S443.08 609.43 473.19 609.43S506.13 622.64 536.88 622.64S571.33 633.72 600.56 633.72S635.09 615.47 664.25 615.47S698.38 620.27 727.94 620.27S760.42 642.07 791.63 642.07S824.8 620.71 855.32 620.71S890.63 637.97 919 637.97S954.66 627.21 982.69 627.21S1015.26 623.44 1046.38 623.44S1081.73 622.79 1110.07 622.79S1145.3 642.12 1173.75 642.12S1208.11 624.68 1237.44 624.68S1271.4 634.14 1301.13 634.14S1335.72 635.37 1364.82 635.37S1399.44 637.56 1428.5 637.56S1462.77 620.38 1492.19 620.38S1524.43 627.13 1555.88 627.13S1591.35 644.2 1619.57 644.2S1652.79 617.32 1683.26 617.32S1717 609.85 1746.94 609.85S1778.83 613.02 1810.63 613.02S1846.11 642.43 1874.32 642.43L1828 1001 L-100 1001 Z;M-100 632.31C-67.96 629.8 -66.18 606.94 -36.31 606.94S-3.96 606.45 27.38 606.45S60.47 612.57 91.06 612.57S125.42 637.59 154.75 637.59S189.32 619.01 218.44 619.01S251.56 611.04 282.13 611.04S317.72 622.91 345.81 622.91S379.33 609.03 409.5 609.03S441.62 622.7 473.19 622.7S506.4 634.07 536.88 634.07S569.48 627.79 600.56 627.79S635.81 609.09 664.25 609.09S699.96 641.73 727.94 641.73S760.33 603.33 791.63 603.33S826.64 634.68 855.32 634.68S887.84 631.94 919 631.94S953.64 610.89 982.69 610.89S1014.59 612.19 1046.38 612.19S1078.81 616.29 1110.07 616.29S1141.98 640.6 1173.75 640.6S1206.61 626.77 1237.44 626.77S1273.01 625.8 1301.13 625.8S1333.61 623.15 1364.82 623.15S1400.37 615.42 1428.5 615.42S1461.71 633.52 1492.19 633.52S1525.93 629.44 1555.88 629.44S1589.7 614.74 1619.57 614.74S1652.04 608.3 1683.26 608.3S1718.66 622.54 1746.94 622.54S1779.62 612.14 1810.63 612.14S1842.87 640.11 1874.32 640.11L1828 1001 L-100 1001 Z;M-100 616.67C-67.03 619.26 -66.74 613.98 -36.31 613.98S-0.94 639.64 27.38 639.64S61.45 614.82 91.06 614.82S125.26 637.14 154.75 637.14S188.71 620.34 218.44 620.34S250.74 608.16 282.13 608.16S316.81 611.91 345.81 611.91S380.1 642.36 409.5 642.36S443.08 609.43 473.19 609.43S506.13 622.64 536.88 622.64S571.33 633.72 600.56 633.72S635.09 615.47 664.25 615.47S698.38 620.27 727.94 620.27S760.42 642.07 791.63 642.07S824.8 620.71 855.32 620.71S890.63 637.97 919 637.97S954.66 627.21 982.69 627.21S1015.26 623.44 1046.38 623.44S1081.73 622.79 1110.07 622.79S1145.3 642.12 1173.75 642.12S1208.11 624.68 1237.44 624.68S1271.4 634.14 1301.13 634.14S1335.72 635.37 1364.82 635.37S1399.44 637.56 1428.5 637.56S1462.77 620.38 1492.19 620.38S1524.43 627.13 1555.88 627.13S1591.35 644.2 1619.57 644.2S1652.79 617.32 1683.26 617.32S1717 609.85 1746.94 609.85S1778.83 613.02 1810.63 613.02S1846.11 642.43 1874.32 642.43L1828 1001 L-100 1001 Z"/>
  <animateTransform attributeName="transform" type="translate" dur="28.57142857142857s" begin="-2.5974025974025974s" repeatCount="indefinite" values="0;10;0" calcMode="spline" keySplines="0.3 0 0.7 1;0.3 0 0.7 1"/>
</path><path d="M-100 629.59C-63.87 638.65 -64.24 665.47 -34.74 665.47S1.07 634.54 30.51 634.54S63.7 636.33 95.77 636.33S129.31 656.85 161.02 656.85S196.24 658.62 226.28 658.62S262.77 646.15 291.53 646.15S327.67 629.3 356.79 629.3S390.32 641.86 422.04 641.86S457.83 636.3 487.3 636.3S520.81 655.57 552.55 655.57S588.88 630.02 617.81 630.02S651.67 657.63 683.06 657.63S716.29 657.71 748.32 657.71S783.34 626.94 813.58 626.94S847.34 665.45 878.83 665.45S914.95 649.02 944.09 649.02S978.99 661.45 1009.34 661.45S1043.94 633.77 1074.6 633.77S1109.69 654.6 1139.85 654.6S1173.48 631.94 1205.11 631.94S1238.85 665.23 1270.36 665.23S1306.75 628.76 1335.62 628.76S1371.94 649.98 1400.87 649.98S1433.65 646.58 1466.13 646.58S1500.52 643.94 1531.38 643.94S1565.91 647.04 1596.64 647.04S1631.02 647.58 1661.9 647.58S1696.83 634.08 1727.15 634.08S1759.86 650.99 1792.41 650.99S1825.3 629.11 1857.66 629.11L1828 1001 L-100 1001 Z" fill="#b45d12" stroke-width="0">
  <animate attributeName="d" dur="25.71428571428571s" repeatCount="indefinite" values="M-100 629.59C-63.87 638.65 -64.24 665.47 -34.74 665.47S1.07 634.54 30.51 634.54S63.7 636.33 95.77 636.33S129.31 656.85 161.02 656.85S196.24 658.62 226.28 658.62S262.77 646.15 291.53 646.15S327.67 629.3 356.79 629.3S390.32 641.86 422.04 641.86S457.83 636.3 487.3 636.3S520.81 655.57 552.55 655.57S588.88 630.02 617.81 630.02S651.67 657.63 683.06 657.63S716.29 657.71 748.32 657.71S783.34 626.94 813.58 626.94S847.34 665.45 878.83 665.45S914.95 649.02 944.09 649.02S978.99 661.45 1009.34 661.45S1043.94 633.77 1074.6 633.77S1109.69 654.6 1139.85 654.6S1173.48 631.94 1205.11 631.94S1238.85 665.23 1270.36 665.23S1306.75 628.76 1335.62 628.76S1371.94 649.98 1400.87 649.98S1433.65 646.58 1466.13 646.58S1500.52 643.94 1531.38 643.94S1565.91 647.04 1596.64 647.04S1631.02 647.58 1661.9 647.58S1696.83 634.08 1727.15 634.08S1759.86 650.99 1792.41 650.99S1825.3 629.11 1857.66 629.11L1828 1001 L-100 1001 Z;M-100 654.05C-66.94 647.89 -65.36 628.5 -34.74 628.5S-1.08 632.1 30.51 632.1S66.25 638.13 95.77 638.13S128.67 631.97 161.02 631.97S194.54 657.41 226.28 657.41S261.59 655.08 291.53 655.08S324.9 668.32 356.79 668.32S390.47 647.33 422.04 647.33S456.37 634.01 487.3 634.01S520.35 632.97 552.55 632.97S585.21 632.43 617.81 632.43S652.69 661.96 683.06 661.96S715.92 626.17 748.32 626.17S783.62 663.36 813.58 663.36S846.67 656.91 878.83 656.91S914.1 658.58 944.09 658.58S978.84 629 1009.34 629S1045.66 664.37 1074.6 664.37S1108.99 659.94 1139.85 659.94S1173.99 639.24 1205.11 639.24S1238.2 652.83 1270.36 652.83S1306.07 637.61 1335.62 637.61S1371.32 653.82 1400.87 653.82S1436.06 661.75 1466.13 661.75S1499.72 640.7 1531.38 640.7S1564.09 641.66 1596.64 641.66S1630.83 663.56 1661.9 663.56S1698.47 663.28 1727.15 663.28S1760.93 637.51 1792.41 637.51S1828.96 653.94 1857.66 653.94L1828 1001 L-100 1001 Z;M-100 629.59C-63.87 638.65 -64.24 665.47 -34.74 665.47S1.07 634.54 30.51 634.54S63.7 636.33 95.77 636.33S129.31 656.85 161.02 656.85S196.24 658.62 226.28 658.62S262.77 646.15 291.53 646.15S327.67 629.3 356.79 629.3S390.32 641.86 422.04 641.86S457.83 636.3 487.3 636.3S520.81 655.57 552.55 655.57S588.88 630.02 617.81 630.02S651.67 657.63 683.06 657.63S716.29 657.71 748.32 657.71S783.34 626.94 813.58 626.94S847.34 665.45 878.83 665.45S914.95 649.02 944.09 649.02S978.99 661.45 1009.34 661.45S1043.94 633.77 1074.6 633.77S1109.69 654.6 1139.85 654.6S1173.48 631.94 1205.11 631.94S1238.85 665.23 1270.36 665.23S1306.75 628.76 1335.62 628.76S1371.94 649.98 1400.87 649.98S1433.65 646.58 1466.13 646.58S1500.52 643.94 1531.38 643.94S1565.91 647.04 1596.64 647.04S1631.02 647.58 1661.9 647.58S1696.83 634.08 1727.15 634.08S1759.86 650.99 1792.41 650.99S1825.3 629.11 1857.66 629.11L1828 1001 L-100 1001 Z"/>
  <animateTransform attributeName="transform" type="translate" dur="25.71428571428571s" begin="-4.675324675324675s" repeatCount="indefinite" values="0;10;0" calcMode="spline" keySplines="0.3 0 0.7 1;0.3 0 0.7 1"/>
</path><path d="M-100 655.05C-62.73 691.34 -65.49 665.85 -33.1 665.85S2.82 684.57 33.8 684.57S71.22 678.37 100.71 678.37S136.67 684.62 167.61 684.62S203.75 658.81 234.51 658.81S268.62 667.15 301.41 667.15S335.8 658.02 368.32 658.02S402.14 670.5 435.22 670.5S469.06 668.95 502.12 668.95S539.31 658.32 569.02 658.32S605.69 677.94 635.92 677.94S671.51 671.68 702.83 671.68S736.56 681.86 769.73 681.86S803.44 685.48 836.63 685.48S873.33 659.87 903.53 659.87S937.38 656.15 970.44 656.15S1007.55 662.64 1037.34 662.64S1072.95 658.92 1104.24 658.92S1137.9 679.06 1171.14 679.06S1204.71 677.48 1238.04 677.48S1274.02 689.78 1304.95 689.78S1341.49 683.83 1371.85 683.83S1406.33 662.14 1438.75 662.14S1473.31 673.96 1505.65 673.96S1540.22 678.84 1572.56 678.84S1606.41 656.62 1639.46 656.62S1673.26 671.56 1706.36 671.56S1742.79 654.35 1773.26 654.35S1809.69 679.28 1840.16 679.28L1828 1001 L-100 1001 Z" fill="#bd6519" stroke-width="0">
  <animate attributeName="d" dur="22.857142857142854s" repeatCount="indefinite" values="M-100 655.05C-62.73 691.34 -65.49 665.85 -33.1 665.85S2.82 684.57 33.8 684.57S71.22 678.37 100.71 678.37S136.67 684.62 167.61 684.62S203.75 658.81 234.51 658.81S268.62 667.15 301.41 667.15S335.8 658.02 368.32 658.02S402.14 670.5 435.22 670.5S469.06 668.95 502.12 668.95S539.31 658.32 569.02 658.32S605.69 677.94 635.92 677.94S671.51 671.68 702.83 671.68S736.56 681.86 769.73 681.86S803.44 685.48 836.63 685.48S873.33 659.87 903.53 659.87S937.38 656.15 970.44 656.15S1007.55 662.64 1037.34 662.64S1072.95 658.92 1104.24 658.92S1137.9 679.06 1171.14 679.06S1204.71 677.48 1238.04 677.48S1274.02 689.78 1304.95 689.78S1341.49 683.83 1371.85 683.83S1406.33 662.14 1438.75 662.14S1473.31 673.96 1505.65 673.96S1540.22 678.84 1572.56 678.84S1606.41 656.62 1639.46 656.62S1673.26 671.56 1706.36 671.56S1742.79 654.35 1773.26 654.35S1809.69 679.28 1840.16 679.28L1828 1001 L-100 1001 Z;M-100 666.05C-63.41 651.64 -64.94 665.03 -33.1 665.03S3.24 689.54 33.8 689.54S68.09 685.72 100.71 685.72S134.37 685.84 167.61 685.84S202.51 653.49 234.51 653.49S269 678.15 301.41 678.15S337.05 665.7 368.32 665.7S405.43 681.08 435.22 681.08S468.76 681.92 502.12 681.92S538.4 682.49 569.02 682.49S604.23 658 635.92 658S669.69 668.58 702.83 668.58S736.66 673.77 769.73 673.77S805.05 654.55 836.63 654.55S870.51 684.47 903.53 684.47S938.25 661.05 970.44 661.05S1007.33 664.36 1037.34 664.36S1072.66 660.09 1104.24 660.09S1139.39 680.84 1171.14 680.84S1205.19 656.11 1238.04 656.11S1272.01 680.46 1304.95 680.46S1339.01 674.4 1371.85 674.4S1408.39 680.92 1438.75 680.92S1473.05 686.79 1505.65 686.79S1539.75 678.04 1572.56 678.04S1606.6 661.26 1639.46 661.26S1674.78 654.95 1706.36 654.95S1741.45 652.16 1773.26 652.16S1809.53 669.41 1840.16 669.41L1828 1001 L-100 1001 Z;M-100 655.05C-62.73 691.34 -65.49 665.85 -33.1 665.85S2.82 684.57 33.8 684.57S71.22 678.37 100.71 678.37S136.67 684.62 167.61 684.62S203.75 658.81 234.51 658.81S268.62 667.15 301.41 667.15S335.8 658.02 368.32 658.02S402.14 670.5 435.22 670.5S469.06 668.95 502.12 668.95S539.31 658.32 569.02 658.32S605.69 677.94 635.92 677.94S671.51 671.68 702.83 671.68S736.56 681.86 769.73 681.86S803.44 685.48 836.63 685.48S873.33 659.87 903.53 659.87S937.38 656.15 970.44 656.15S1007.55 662.64 1037.34 662.64S1072.95 658.92 1104.24 658.92S1137.9 679.06 1171.14 679.06S1204.71 677.48 1238.04 677.48S1274.02 689.78 1304.95 689.78S1341.49 683.83 1371.85 683.83S1406.33 662.14 1438.75 662.14S1473.31 673.96 1505.65 673.96S1540.22 678.84 1572.56 678.84S1606.41 656.62 1639.46 656.62S1673.26 671.56 1706.36 671.56S1742.79 654.35 1773.26 654.35S1809.69 679.28 1840.16 679.28L1828 1001 L-100 1001 Z"/>
  <animateTransform attributeName="transform" type="translate" dur="22.857142857142854s" begin="-6.233766233766232s" repeatCount="indefinite" values="0;10;0" calcMode="spline" keySplines="0.3 0 0.7 1;0.3 0 0.7 1"/>
</path><path d="M-100 679.33C-62.08 678.63 -63.15 715.55 -31.37 715.55S3.96 708.54 37.27 708.54S73.7 693.42 105.9 693.42S143.63 672.58 174.54 672.58S209 686.11 243.17 686.11S278.64 706.62 311.81 706.62S346.67 691.69 380.44 691.69S415.43 701.61 449.07 701.61S484.24 680.32 517.71 680.32S552.35 700.2 586.34 700.2S623.27 713.89 654.98 713.89S690.7 707.46 723.61 707.46S760.23 693.86 792.25 693.86S827.4 712.25 860.88 712.25S896.1 714.13 929.51 714.13S967.83 696.35 998.15 696.35S1034.21 685.43 1066.78 685.43S1101.98 701.35 1135.42 701.35S1170.43 690.99 1204.05 690.99S1241.6 677.45 1272.69 677.45S1307.96 686.85 1341.32 686.85S1376.93 679.63 1409.95 679.63S1447.23 705.68 1478.59 705.68S1516.25 700.09 1547.22 700.09S1584.42 694.09 1615.86 694.09S1653.64 700.51 1684.49 700.51S1720.91 713.84 1753.13 713.84S1787.7 682.01 1821.76 682.01S1857.06 700 1890.39 700L1828 1001 L-100 1001 Z" fill="#c56c21" stroke-width="0">
  <animate attributeName="d" dur="19.999999999999996s" repeatCount="indefinite" values="M-100 679.33C-62.08 678.63 -63.15 715.55 -31.37 715.55S3.96 708.54 37.27 708.54S73.7 693.42 105.9 693.42S143.63 672.58 174.54 672.58S209 686.11 243.17 686.11S278.64 706.62 311.81 706.62S346.67 691.69 380.44 691.69S415.43 701.61 449.07 701.61S484.24 680.32 517.71 680.32S552.35 700.2 586.34 700.2S623.27 713.89 654.98 713.89S690.7 707.46 723.61 707.46S760.23 693.86 792.25 693.86S827.4 712.25 860.88 712.25S896.1 714.13 929.51 714.13S967.83 696.35 998.15 696.35S1034.21 685.43 1066.78 685.43S1101.98 701.35 1135.42 701.35S1170.43 690.99 1204.05 690.99S1241.6 677.45 1272.69 677.45S1307.96 686.85 1341.32 686.85S1376.93 679.63 1409.95 679.63S1447.23 705.68 1478.59 705.68S1516.25 700.09 1547.22 700.09S1584.42 694.09 1615.86 694.09S1653.64 700.51 1684.49 700.51S1720.91 713.84 1753.13 713.84S1787.7 682.01 1821.76 682.01S1857.06 700 1890.39 700L1828 1001 L-100 1001 Z;M-100 705.57C-62.9 680.87 -64.38 676.69 -31.37 676.69S6.35 697.48 37.27 697.48S72.46 686.1 105.9 686.1S142.85 675.85 174.54 675.85S212.25 683.6 243.17 683.6S278.71 682.27 311.81 682.27S346.37 698.12 380.44 698.12S416.91 692.62 449.07 692.62S486.81 687.3 517.71 687.3S555.47 684.84 586.34 684.84S622.61 678.92 654.98 678.92S692.08 690.99 723.61 690.99S760.98 703.38 792.25 703.38S828.49 673.23 860.88 673.23S898.63 702.44 929.51 702.44S965.02 673.68 998.15 673.68S1035.89 710.99 1066.78 710.99S1105.05 706.42 1135.42 706.42S1170.55 682.29 1204.05 682.29S1241.25 678.38 1272.69 678.38S1308.33 701.32 1341.32 701.32S1377.67 690.28 1409.95 690.28S1447.25 693.74 1478.59 693.74S1513.51 705.23 1547.22 705.23S1584.86 686.07 1615.86 686.07S1653.71 710.18 1684.49 710.18S1721.67 692.97 1753.13 692.97S1787.89 712.93 1821.76 712.93S1857.38 702.74 1890.39 702.74L1828 1001 L-100 1001 Z;M-100 679.33C-62.08 678.63 -63.15 715.55 -31.37 715.55S3.96 708.54 37.27 708.54S73.7 693.42 105.9 693.42S143.63 672.58 174.54 672.58S209 686.11 243.17 686.11S278.64 706.62 311.81 706.62S346.67 691.69 380.44 691.69S415.43 701.61 449.07 701.61S484.24 680.32 517.71 680.32S552.35 700.2 586.34 700.2S623.27 713.89 654.98 713.89S690.7 707.46 723.61 707.46S760.23 693.86 792.25 693.86S827.4 712.25 860.88 712.25S896.1 714.13 929.51 714.13S967.83 696.35 998.15 696.35S1034.21 685.43 1066.78 685.43S1101.98 701.35 1135.42 701.35S1170.43 690.99 1204.05 690.99S1241.6 677.45 1272.69 677.45S1307.96 686.85 1341.32 686.85S1376.93 679.63 1409.95 679.63S1447.23 705.68 1478.59 705.68S1516.25 700.09 1547.22 700.09S1584.42 694.09 1615.86 694.09S1653.64 700.51 1684.49 700.51S1720.91 713.84 1753.13 713.84S1787.7 682.01 1821.76 682.01S1857.06 700 1890.39 700L1828 1001 L-100 1001 Z"/>
  <animateTransform attributeName="transform" type="translate" dur="19.999999999999996s" begin="-7.272727272727272s" repeatCount="indefinite" values="0;10;0" calcMode="spline" keySplines="0.3 0 0.7 1;0.3 0 0.7 1"/>
</path><path d="M-100 740.5C-61.26 707.33 -61.77 708.06 -29.54 708.06S5.88 729.66 40.92 729.66S77.99 732.62 111.38 732.62S150.06 701.14 181.83 701.14S220.88 737.85 252.29 737.85S290.16 730.45 322.75 730.45S360.17 730.88 393.21 730.88S428.44 711.18 463.67 711.18S500.83 727.41 534.13 727.41S572.59 723.63 604.58 723.63S640.08 740.01 675.04 740.01S713.83 713.83 745.5 713.83S783.1 721.71 815.96 721.71S853.63 714.89 886.42 714.89S922.41 725.41 956.88 725.41S996.07 712.76 1027.34 712.76S1066.13 706.35 1097.79 706.35S1135.73 733.92 1168.25 733.92S1206.84 725.48 1238.71 725.48S1276.22 720.32 1309.17 720.32S1346.66 706.43 1379.63 706.43S1415.61 731.77 1450.09 731.77S1487.87 699.9 1520.54 699.9S1559.09 713.84 1591 713.84S1627.08 707.84 1661.46 707.84S1698.01 707.53 1731.92 707.53S1771.09 703.26 1802.38 703.26S1840.72 715.47 1872.84 715.47L1828 1001 L-100 1001 Z" fill="#cd7428" stroke-width="0">
  <animate attributeName="d" dur="17.142857142857142s" repeatCount="indefinite" values="M-100 740.5C-61.26 707.33 -61.77 708.06 -29.54 708.06S5.88 729.66 40.92 729.66S77.99 732.62 111.38 732.62S150.06 701.14 181.83 701.14S220.88 737.85 252.29 737.85S290.16 730.45 322.75 730.45S360.17 730.88 393.21 730.88S428.44 711.18 463.67 711.18S500.83 727.41 534.13 727.41S572.59 723.63 604.58 723.63S640.08 740.01 675.04 740.01S713.83 713.83 745.5 713.83S783.1 721.71 815.96 721.71S853.63 714.89 886.42 714.89S922.41 725.41 956.88 725.41S996.07 712.76 1027.34 712.76S1066.13 706.35 1097.79 706.35S1135.73 733.92 1168.25 733.92S1206.84 725.48 1238.71 725.48S1276.22 720.32 1309.17 720.32S1346.66 706.43 1379.63 706.43S1415.61 731.77 1450.09 731.77S1487.87 699.9 1520.54 699.9S1559.09 713.84 1591 713.84S1627.08 707.84 1661.46 707.84S1698.01 707.53 1731.92 707.53S1771.09 703.26 1802.38 703.26S1840.72 715.47 1872.84 715.47L1828 1001 L-100 1001 Z;M-100 704.09C-64.55 707.23 -62.37 712.83 -29.54 712.83S6.52 696.67 40.92 696.67S76.71 717.7 111.38 717.7S147.56 719.86 181.83 719.86S220.75 722.71 252.29 722.71S289.08 712.06 322.75 712.06S360.71 717.11 393.21 717.11S430 716.39 463.67 716.39S501.11 725.74 534.13 725.74S572.07 703.09 604.58 703.09S640.72 713.74 675.04 713.74S711.19 717.01 745.5 717.01S783.75 709.1 815.96 709.1S853.42 726.51 886.42 726.51S922.68 724.5 956.88 724.5S995.32 711.66 1027.34 711.66S1065.84 728.75 1097.79 728.75S1137 712.02 1168.25 712.02S1203.64 722.02 1238.71 722.02S1275.94 698.9 1309.17 698.9S1347.91 727.11 1379.63 727.11S1415.48 712.19 1450.09 712.19S1487.93 720.9 1520.54 720.9S1559.12 703.49 1591 703.49S1628.97 712.18 1661.46 712.18S1697.14 726.57 1731.92 726.57S1767.94 715.18 1802.38 715.18S1837.9 728.75 1872.84 728.75L1828 1001 L-100 1001 Z;M-100 740.5C-61.26 707.33 -61.77 708.06 -29.54 708.06S5.88 729.66 40.92 729.66S77.99 732.62 111.38 732.62S150.06 701.14 181.83 701.14S220.88 737.85 252.29 737.85S290.16 730.45 322.75 730.45S360.17 730.88 393.21 730.88S428.44 711.18 463.67 711.18S500.83 727.41 534.13 727.41S572.59 723.63 604.58 723.63S640.08 740.01 675.04 740.01S713.83 713.83 745.5 713.83S783.1 721.71 815.96 721.71S853.63 714.89 886.42 714.89S922.41 725.41 956.88 725.41S996.07 712.76 1027.34 712.76S1066.13 706.35 1097.79 706.35S1135.73 733.92 1168.25 733.92S1206.84 725.48 1238.71 725.48S1276.22 720.32 1309.17 720.32S1346.66 706.43 1379.63 706.43S1415.61 731.77 1450.09 731.77S1487.87 699.9 1520.54 699.9S1559.09 713.84 1591 713.84S1627.08 707.84 1661.46 707.84S1698.01 707.53 1731.92 707.53S1771.09 703.26 1802.38 703.26S1840.72 715.47 1872.84 715.47L1828 1001 L-100 1001 Z"/>
  <animateTransform attributeName="transform" type="translate" dur="17.142857142857142s" begin="-7.792207792207791s" repeatCount="indefinite" values="0;10;0" calcMode="spline" keySplines="0.3 0 0.7 1;0.3 0 0.7 1"/>
</path><path d="M-100 727.02C-60.44 755.55 -61.76 741.86 -27.62 741.86S10.22 731.17 44.76 731.17S83.35 737.72 117.15 737.72S153.76 725.94 189.53 725.94S226.71 758.08 261.91 758.08S300.14 730.97 334.29 730.97S371.99 758.13 406.68 758.13S444 728.61 479.06 728.61S515.54 726.9 551.44 726.9S591.31 737.38 623.82 737.38S663.99 756.85 696.2 756.85S733.82 735.79 768.59 735.79S806.1 764.38 840.97 764.38S878.31 727.26 913.35 727.26S952.74 736.91 985.73 736.91S1025.74 725.73 1058.12 725.73S1094.37 759.92 1130.5 759.92S1170.62 722.1 1202.88 722.1S1239.17 763.45 1275.26 763.45S1314.39 748 1347.65 748S1385.14 763.31 1420.03 763.31S1459.44 749.51 1492.41 749.51S1529.05 755.24 1564.79 755.24S1601.37 756.86 1637.17 756.86S1676.96 730.26 1709.56 730.26S1746.03 749.81 1781.94 749.81S1820.41 751.21 1854.32 751.21L1828 1001 L-100 1001 Z" fill="#d57c2f" stroke-width="0">
  <animate attributeName="d" dur="14.285714285714285s" repeatCount="indefinite" values="M-100 727.02C-60.44 755.55 -61.76 741.86 -27.62 741.86S10.22 731.17 44.76 731.17S83.35 737.72 117.15 737.72S153.76 725.94 189.53 725.94S226.71 758.08 261.91 758.08S300.14 730.97 334.29 730.97S371.99 758.13 406.68 758.13S444 728.61 479.06 728.61S515.54 726.9 551.44 726.9S591.31 737.38 623.82 737.38S663.99 756.85 696.2 756.85S733.82 735.79 768.59 735.79S806.1 764.38 840.97 764.38S878.31 727.26 913.35 727.26S952.74 736.91 985.73 736.91S1025.74 725.73 1058.12 725.73S1094.37 759.92 1130.5 759.92S1170.62 722.1 1202.88 722.1S1239.17 763.45 1275.26 763.45S1314.39 748 1347.65 748S1385.14 763.31 1420.03 763.31S1459.44 749.51 1492.41 749.51S1529.05 755.24 1564.79 755.24S1601.37 756.86 1637.17 756.86S1676.96 730.26 1709.56 730.26S1746.03 749.81 1781.94 749.81S1820.41 751.21 1854.32 751.21L1828 1001 L-100 1001 Z;M-100 755.93C-63.25 732.33 -60.04 740.88 -27.62 740.88S8.92 751.32 44.76 751.32S83.29 728.63 117.15 728.63S157.14 760.84 189.53 760.84S226.16 734.41 261.91 734.41S301.78 743.35 334.29 743.35S374.49 760.84 406.68 760.84S443.19 728.81 479.06 728.81S517.26 727.23 551.44 727.23S587.71 756.95 623.82 756.95S662.16 746.78 696.2 746.78S732.48 733.23 768.59 733.23S807.68 737.22 840.97 737.22S878.01 739.06 913.35 739.06S953.27 726.9 985.73 726.9S1024.46 724.65 1058.12 724.65S1095.13 738.27 1130.5 738.27S1169.75 731.07 1202.88 731.07S1241.07 751.16 1275.26 751.16S1313.63 733.28 1347.65 733.28S1387.56 724.58 1420.03 724.58S1459.72 726.62 1492.41 726.62S1530.59 728.64 1564.79 728.64S1604.91 743.56 1637.17 743.56S1675.3 744.74 1709.56 744.74S1748.72 741.73 1781.94 741.73S1820.11 746.73 1854.32 746.73L1828 1001 L-100 1001 Z;M-100 727.02C-60.44 755.55 -61.76 741.86 -27.62 741.86S10.22 731.17 44.76 731.17S83.35 737.72 117.15 737.72S153.76 725.94 189.53 725.94S226.71 758.08 261.91 758.08S300.14 730.97 334.29 730.97S371.99 758.13 406.68 758.13S444 728.61 479.06 728.61S515.54 726.9 551.44 726.9S591.31 737.38 623.82 737.38S663.99 756.85 696.2 756.85S733.82 735.79 768.59 735.79S806.1 764.38 840.97 764.38S878.31 727.26 913.35 727.26S952.74 736.91 985.73 736.91S1025.74 725.73 1058.12 725.73S1094.37 759.92 1130.5 759.92S1170.62 722.1 1202.88 722.1S1239.17 763.45 1275.26 763.45S1314.39 748 1347.65 748S1385.14 763.31 1420.03 763.31S1459.44 749.51 1492.41 749.51S1529.05 755.24 1564.79 755.24S1601.37 756.86 1637.17 756.86S1676.96 730.26 1709.56 730.26S1746.03 749.81 1781.94 749.81S1820.41 751.21 1854.32 751.21L1828 1001 L-100 1001 Z"/>
  <animateTransform attributeName="transform" type="translate" dur="14.285714285714285s" begin="-7.792207792207791s" repeatCount="indefinite" values="0;10;0" calcMode="spline" keySplines="0.3 0 0.7 1;0.3 0 0.7 1"/>
</path><path d="M-100 743.42C-62.42 774.4 -59.47 779.19 -25.59 779.19S12.81 749.44 48.83 749.44S87.7 749.71 123.24 749.71S162.33 775.53 197.66 775.53S236.86 768.54 272.07 768.54S312.39 753.22 346.48 753.22S383.92 775.75 420.9 775.75S460.99 746.02 495.31 746.02S534.33 778.58 569.73 778.58S609.44 749.7 644.14 749.7S683.39 760.9 718.55 760.9S757.5 772.29 792.97 772.29S831.51 778.88 867.38 778.88S907.79 775.07 941.8 775.07S980.46 746.7 1016.21 746.7S1053.59 754.65 1090.62 754.65S1131.24 757.75 1165.04 757.75S1203.98 763.67 1239.45 763.67S1278 771.74 1313.87 771.74S1354.78 764.32 1388.28 764.32S1425.53 785.8 1462.69 785.8S1501.72 740.54 1537.11 740.54S1577.95 785.24 1611.52 785.24S1652.4 762.22 1685.94 762.22S1727.12 777.98 1760.35 777.98S1798.86 768.65 1834.76 768.65L1828 1001 L-100 1001 Z" fill="#de8436" stroke-width="0">
  <animate attributeName="d" dur="11.428571428571427s" repeatCount="indefinite" values="M-100 743.42C-62.42 774.4 -59.47 779.19 -25.59 779.19S12.81 749.44 48.83 749.44S87.7 749.71 123.24 749.71S162.33 775.53 197.66 775.53S236.86 768.54 272.07 768.54S312.39 753.22 346.48 753.22S383.92 775.75 420.9 775.75S460.99 746.02 495.31 746.02S534.33 778.58 569.73 778.58S609.44 749.7 644.14 749.7S683.39 760.9 718.55 760.9S757.5 772.29 792.97 772.29S831.51 778.88 867.38 778.88S907.79 775.07 941.8 775.07S980.46 746.7 1016.21 746.7S1053.59 754.65 1090.62 754.65S1131.24 757.75 1165.04 757.75S1203.98 763.67 1239.45 763.67S1278 771.74 1313.87 771.74S1354.78 764.32 1388.28 764.32S1425.53 785.8 1462.69 785.8S1501.72 740.54 1537.11 740.54S1577.95 785.24 1611.52 785.24S1652.4 762.22 1685.94 762.22S1727.12 777.98 1760.35 777.98S1798.86 768.65 1834.76 768.65L1828 1001 L-100 1001 Z;M-100 757.15C-61.7 758.02 -59.41 764.17 -25.59 764.17S12 767.61 48.83 767.61S89.17 764.98 123.24 764.98S160.63 757.51 197.66 757.51S235.57 774.29 272.07 774.29S310.83 756.83 346.48 756.83S384.69 746.12 420.9 746.12S459.63 777.76 495.31 777.76S535.29 751.17 569.73 751.17S610.34 772.11 644.14 772.11S683.19 747.55 718.55 747.55S758.57 759.61 792.97 759.61S831.23 749.27 867.38 749.27S908.18 765.42 941.8 765.42S979.02 766.98 1016.21 766.98S1055.57 787.8 1090.62 787.8S1129.74 743.52 1165.04 743.52S1204.15 749.66 1239.45 749.66S1277.76 757.43 1313.87 757.43S1352.75 750.92 1388.28 750.92S1429.34 752.48 1462.69 752.48S1503.08 741.01 1537.11 741.01S1577.69 784.81 1611.52 784.81S1650.43 772.83 1685.94 772.83S1724.47 750.52 1760.35 750.52S1800.31 777.84 1834.76 777.84L1828 1001 L-100 1001 Z;M-100 743.42C-62.42 774.4 -59.47 779.19 -25.59 779.19S12.81 749.44 48.83 749.44S87.7 749.71 123.24 749.71S162.33 775.53 197.66 775.53S236.86 768.54 272.07 768.54S312.39 753.22 346.48 753.22S383.92 775.75 420.9 775.75S460.99 746.02 495.31 746.02S534.33 778.58 569.73 778.58S609.44 749.7 644.14 749.7S683.39 760.9 718.55 760.9S757.5 772.29 792.97 772.29S831.51 778.88 867.38 778.88S907.79 775.07 941.8 775.07S980.46 746.7 1016.21 746.7S1053.59 754.65 1090.62 754.65S1131.24 757.75 1165.04 757.75S1203.98 763.67 1239.45 763.67S1278 771.74 1313.87 771.74S1354.78 764.32 1388.28 764.32S1425.53 785.8 1462.69 785.8S1501.72 740.54 1537.11 740.54S1577.95 785.24 1611.52 785.24S1652.4 762.22 1685.94 762.22S1727.12 777.98 1760.35 777.98S1798.86 768.65 1834.76 768.65L1828 1001 L-100 1001 Z"/>
  <animateTransform attributeName="transform" type="translate" dur="11.428571428571427s" begin="-7.272727272727272s" repeatCount="indefinite" values="0;10;0" calcMode="spline" keySplines="0.3 0 0.7 1;0.3 0 0.7 1"/>
</path><path d="M-100 781.93C-60.42 783.63 -60.78 809.29 -23.44 809.29S15.93 783.55 53.13 783.55S93.43 800.29 129.69 800.29S169.6 783.53 206.25 783.53S248.16 785.9 282.82 785.9S323.26 801.34 359.38 801.34S401.4 787.38 435.94 787.38S475.3 787.01 512.51 787.01S550.85 782.9 589.07 782.9S629.57 797.46 665.63 797.46S706.84 799.41 742.19 799.41S782.36 794.41 818.76 794.41S857.93 803.92 895.32 803.92S934.23 788.07 971.88 788.07S1010.67 804.34 1048.45 804.34S1088.49 777.19 1125.01 777.19S1164.17 773.45 1201.57 773.45S1241.25 787.85 1278.14 787.85S1319.02 805.85 1354.7 805.85S1393.91 766.07 1431.26 766.07S1473.18 784.04 1507.83 784.04S1549.09 775.91 1584.39 775.91S1623.08 787.18 1660.95 787.18S1703.02 792.41 1737.52 792.41S1779.15 809.02 1814.08 809.02S1853.7 780.07 1890.64 780.07L1828 1001 L-100 1001 Z" fill="#e68c3c" stroke-width="0">
  <animate attributeName="d" dur="8.571428571428571s" repeatCount="indefinite" values="M-100 781.93C-60.42 783.63 -60.78 809.29 -23.44 809.29S15.93 783.55 53.13 783.55S93.43 800.29 129.69 800.29S169.6 783.53 206.25 783.53S248.16 785.9 282.82 785.9S323.26 801.34 359.38 801.34S401.4 787.38 435.94 787.38S475.3 787.01 512.51 787.01S550.85 782.9 589.07 782.9S629.57 797.46 665.63 797.46S706.84 799.41 742.19 799.41S782.36 794.41 818.76 794.41S857.93 803.92 895.32 803.92S934.23 788.07 971.88 788.07S1010.67 804.34 1048.45 804.34S1088.49 777.19 1125.01 777.19S1164.17 773.45 1201.57 773.45S1241.25 787.85 1278.14 787.85S1319.02 805.85 1354.7 805.85S1393.91 766.07 1431.26 766.07S1473.18 784.04 1507.83 784.04S1549.09 775.91 1584.39 775.91S1623.08 787.18 1660.95 787.18S1703.02 792.41 1737.52 792.41S1779.15 809.02 1814.08 809.02S1853.7 780.07 1890.64 780.07L1828 1001 L-100 1001 Z;M-100 795.13C-58.88 803.82 -58.6 788.84 -23.44 788.84S17.66 777.05 53.13 777.05S95.25 777.19 129.69 777.19S170.33 804.36 206.25 804.36S248.48 799.43 282.82 799.43S323.71 781.08 359.38 781.08S400.96 808.83 435.94 808.83S477.14 778.13 512.51 778.13S551.58 797.7 589.07 797.7S630.33 792.34 665.63 792.34S707.67 777.53 742.19 777.53S782.89 801.7 818.76 801.7S860.69 777.94 895.32 777.94S935.26 785.59 971.88 785.59S1013.07 810.06 1048.45 810.06S1089.12 800.8 1125.01 800.8S1167.28 787.26 1201.57 787.26S1240.17 787.8 1278.14 787.8S1319.2 782.13 1354.7 782.13S1393.31 802 1431.26 802S1472.85 772.73 1507.83 772.73S1549 802.57 1584.39 802.57S1625.56 806.07 1660.95 806.07S1701.18 785.48 1737.52 785.48S1776.74 786.17 1814.08 786.17S1853.26 786.93 1890.64 786.93L1828 1001 L-100 1001 Z;M-100 781.93C-60.42 783.63 -60.78 809.29 -23.44 809.29S15.93 783.55 53.13 783.55S93.43 800.29 129.69 800.29S169.6 783.53 206.25 783.53S248.16 785.9 282.82 785.9S323.26 801.34 359.38 801.34S401.4 787.38 435.94 787.38S475.3 787.01 512.51 787.01S550.85 782.9 589.07 782.9S629.57 797.46 665.63 797.46S706.84 799.41 742.19 799.41S782.36 794.41 818.76 794.41S857.93 803.92 895.32 803.92S934.23 788.07 971.88 788.07S1010.67 804.34 1048.45 804.34S1088.49 777.19 1125.01 777.19S1164.17 773.45 1201.57 773.45S1241.25 787.85 1278.14 787.85S1319.02 805.85 1354.7 805.85S1393.91 766.07 1431.26 766.07S1473.18 784.04 1507.83 784.04S1549.09 775.91 1584.39 775.91S1623.08 787.18 1660.95 787.18S1703.02 792.41 1737.52 792.41S1779.15 809.02 1814.08 809.02S1853.7 780.07 1890.64 780.07L1828 1001 L-100 1001 Z"/>
  <animateTransform attributeName="transform" type="translate" dur="8.571428571428571s" begin="-6.233766233766233s" repeatCount="indefinite" values="0;10;0" calcMode="spline" keySplines="0.3 0 0.7 1;0.3 0 0.7 1"/>
</path><path d="M-100 802.15C-56.83 801.78 -57.62 805.04 -21.16 805.04S21.98 798.81 57.68 798.81S100.27 809.05 136.52 809.05S179.53 790.91 215.36 790.91S257.97 785.67 294.2 785.67S336.04 798.27 373.04 798.27S413.61 825.12 451.88 825.12S493.69 796.73 530.72 796.73S572.7 819.51 609.56 819.51S650.79 823.83 688.4 823.83S731.61 817.89 767.24 817.89S809.84 821.67 846.08 821.67S885.54 812.55 924.92 812.55S966.73 821.9 1003.76 821.9S1046.45 824.92 1082.6 824.92S1123.4 804.57 1161.44 804.57S1203.65 810.31 1240.28 810.31S1283.24 810.07 1319.12 810.07S1358.97 810.25 1397.96 810.25S1440.93 791.79 1476.8 791.79S1517.34 806.32 1555.64 806.32S1597.79 792.28 1634.48 792.28S1677.86 798.03 1713.32 798.03S1755.74 813.61 1792.16 813.61S1833.74 833.33 1871 833.33L1828 1001 L-100 1001 Z" fill="#ee9443" stroke-width="0">
  <animate attributeName="d" dur="5.7142857142857135s" repeatCount="indefinite" values="M-100 802.15C-56.83 801.78 -57.62 805.04 -21.16 805.04S21.98 798.81 57.68 798.81S100.27 809.05 136.52 809.05S179.53 790.91 215.36 790.91S257.97 785.67 294.2 785.67S336.04 798.27 373.04 798.27S413.61 825.12 451.88 825.12S493.69 796.73 530.72 796.73S572.7 819.51 609.56 819.51S650.79 823.83 688.4 823.83S731.61 817.89 767.24 817.89S809.84 821.67 846.08 821.67S885.54 812.55 924.92 812.55S966.73 821.9 1003.76 821.9S1046.45 824.92 1082.6 824.92S1123.4 804.57 1161.44 804.57S1203.65 810.31 1240.28 810.31S1283.24 810.07 1319.12 810.07S1358.97 810.25 1397.96 810.25S1440.93 791.79 1476.8 791.79S1517.34 806.32 1555.64 806.32S1597.79 792.28 1634.48 792.28S1677.86 798.03 1713.32 798.03S1755.74 813.61 1792.16 813.61S1833.74 833.33 1871 833.33L1828 1001 L-100 1001 Z;M-100 792.28C-59.74 803.22 -58.51 816.59 -21.16 816.59S21.61 790.77 57.68 790.77S99.08 820.89 136.52 820.89S176.37 797.99 215.36 797.99S257.34 820.3 294.2 820.3S335.77 818.41 373.04 818.41S413.15 834.86 451.88 834.86S494.91 813.61 530.72 813.61S573.46 824.68 609.56 824.68S650.24 810.8 688.4 810.8S731.52 816.59 767.24 816.59S810.57 799.06 846.08 799.06S889.43 808.89 924.92 808.89S968.19 814.98 1003.76 814.98S1044.64 809.72 1082.6 809.72S1123.84 797.02 1161.44 797.02S1204.69 796.51 1240.28 796.51S1281.67 809.14 1319.12 809.14S1360.7 816.45 1397.96 816.45S1438.72 808.54 1476.8 808.54S1519.61 833.3 1555.64 833.3S1596.75 835.2 1634.48 835.2S1673.98 816.25 1713.32 816.25S1755.16 790.43 1792.16 790.43S1831.93 834.72 1871 834.72L1828 1001 L-100 1001 Z;M-100 802.15C-56.83 801.78 -57.62 805.04 -21.16 805.04S21.98 798.81 57.68 798.81S100.27 809.05 136.52 809.05S179.53 790.91 215.36 790.91S257.97 785.67 294.2 785.67S336.04 798.27 373.04 798.27S413.61 825.12 451.88 825.12S493.69 796.73 530.72 796.73S572.7 819.51 609.56 819.51S650.79 823.83 688.4 823.83S731.61 817.89 767.24 817.89S809.84 821.67 846.08 821.67S885.54 812.55 924.92 812.55S966.73 821.9 1003.76 821.9S1046.45 824.92 1082.6 824.92S1123.4 804.57 1161.44 804.57S1203.65 810.31 1240.28 810.31S1283.24 810.07 1319.12 810.07S1358.97 810.25 1397.96 810.25S1440.93 791.79 1476.8 791.79S1517.34 806.32 1555.64 806.32S1597.79 792.28 1634.48 792.28S1677.86 798.03 1713.32 798.03S1755.74 813.61 1792.16 813.61S1833.74 833.33 1871 833.33L1828 1001 L-100 1001 Z"/>
  <animateTransform attributeName="transform" type="translate" dur="5.7142857142857135s" begin="-4.675324675324675s" repeatCount="indefinite" values="0;10;0" calcMode="spline" keySplines="0.3 0 0.7 1;0.3 0 0.7 1"/>
</path><path d="M-100 838.56C-59.09 816.14 -56.75 836.66 -18.74 836.66S24.52 856.97 62.51 856.97S105.39 846.3 143.77 846.3S184.45 823.2 225.03 823.2S265.86 858.93 306.28 858.93S347.74 853.76 387.54 853.76S430.03 836.3 468.8 836.3S513.34 827.48 550.05 827.48S592.25 853.67 631.31 853.67S673.23 833.86 712.57 833.86S755.89 851.02 793.82 851.02S834.61 838.71 875.08 838.71S915.88 808.93 956.34 808.93S1000.19 823.74 1037.59 823.74S1081.57 841.66 1118.85 841.66S1160.83 808.71 1200.11 808.71S1241.02 832.63 1281.36 832.63S1325.82 825.32 1362.62 825.32S1407.07 851.58 1443.88 851.58S1485.81 826.23 1525.13 826.23S1569.27 843.27 1606.39 843.27S1649.82 818.52 1687.65 818.52S1730.98 834.86 1768.9 834.86S1810.37 825.53 1850.16 825.53L1828 1001 L-100 1001 Z" fill="#f79c4a" stroke-width="0">
  <animate attributeName="d" dur="2.8571428571428568s" repeatCount="indefinite" values="M-100 838.56C-59.09 816.14 -56.75 836.66 -18.74 836.66S24.52 856.97 62.51 856.97S105.39 846.3 143.77 846.3S184.45 823.2 225.03 823.2S265.86 858.93 306.28 858.93S347.74 853.76 387.54 853.76S430.03 836.3 468.8 836.3S513.34 827.48 550.05 827.48S592.25 853.67 631.31 853.67S673.23 833.86 712.57 833.86S755.89 851.02 793.82 851.02S834.61 838.71 875.08 838.71S915.88 808.93 956.34 808.93S1000.19 823.74 1037.59 823.74S1081.57 841.66 1118.85 841.66S1160.83 808.71 1200.11 808.71S1241.02 832.63 1281.36 832.63S1325.82 825.32 1362.62 825.32S1407.07 851.58 1443.88 851.58S1485.81 826.23 1525.13 826.23S1569.27 843.27 1606.39 843.27S1649.82 818.52 1687.65 818.52S1730.98 834.86 1768.9 834.86S1810.37 825.53 1850.16 825.53L1828 1001 L-100 1001 Z;M-100 830.65C-58.11 809.59 -58.62 857.24 -18.74 857.24S22.65 849.28 62.51 849.28S105.59 835.08 143.77 835.08S184.82 817.07 225.03 817.07S267.13 858.74 306.28 858.74S348.21 822.39 387.54 822.39S429.01 843.26 468.8 843.26S510.22 829.95 550.05 829.95S594.5 846.17 631.31 846.17S673.41 844.87 712.57 844.87S755.7 859.72 793.82 859.72S835.22 849.68 875.08 849.68S918.92 814.47 956.34 814.47S998.27 842.62 1037.59 842.62S1079.26 847.93 1118.85 847.93S1160.26 823.48 1200.11 823.48S1243.86 818.11 1281.36 818.11S1323.58 821.72 1362.62 821.72S1403.61 841.98 1443.88 841.98S1487.87 808.93 1525.13 808.93S1569.13 837.5 1606.39 837.5S1647.39 827.64 1687.65 827.64S1731.65 842.03 1768.9 842.03S1810.56 824.37 1850.16 824.37L1828 1001 L-100 1001 Z;M-100 838.56C-59.09 816.14 -56.75 836.66 -18.74 836.66S24.52 856.97 62.51 856.97S105.39 846.3 143.77 846.3S184.45 823.2 225.03 823.2S265.86 858.93 306.28 858.93S347.74 853.76 387.54 853.76S430.03 836.3 468.8 836.3S513.34 827.48 550.05 827.48S592.25 853.67 631.31 853.67S673.23 833.86 712.57 833.86S755.89 851.02 793.82 851.02S834.61 838.71 875.08 838.71S915.88 808.93 956.34 808.93S1000.19 823.74 1037.59 823.74S1081.57 841.66 1118.85 841.66S1160.83 808.71 1200.11 808.71S1241.02 832.63 1281.36 832.63S1325.82 825.32 1362.62 825.32S1407.07 851.58 1443.88 851.58S1485.81 826.23 1525.13 826.23S1569.27 843.27 1606.39 843.27S1649.82 818.52 1687.65 818.52S1730.98 834.86 1768.9 834.86S1810.37 825.53 1850.16 825.53L1828 1001 L-100 1001 Z"/>
  <animateTransform attributeName="transform" type="translate" dur="2.8571428571428568s" begin="-2.5974025974025974s" repeatCount="indefinite" values="0;10;0" calcMode="spline" keySplines="0.3 0 0.7 1;0.3 0 0.7 1"/>
</path></g>
</svg>