<svg xmlns="http://www.w3.org/2000/svg" xmlns:xlink="http://www.w3.org/1999/xlink" style="margin:auto;background:#f1f2f3;display:block;z-index:1;position:relative" width="1728" height="1001" preserveAspectRatio="xMidYMid" viewBox="0 0 1728 1001">
<g transform="translate(864,500.5) scale(1,1) translate(-864,-500.5)"><path d="M-100 616.22C-66.99 601.24 -67.94 591.02 -37.81 591.02S-4.76 606.29 24.39 606.29S58.87 588.02 86.58 588.02S118.65 608.67 148.77 608.67S182.7 599.28 210.97 599.28S243.43 585.58 273.16 585.58S307.55 599.73 335.35 599.73S368.49 588.49 397.55 588.49S430.47 583.1 459.74 583.1S492.91 608.97 521.94 608.97S554.54 581.55 584.13 581.55S615.37 614.45 646.32 614.45S678.3 592.46 708.52 592.46S741.41 614.11 770.71 614.11S803.82 584.65 832.9 584.65S867.1 603.56 895.1 603.56S929.05 598.08 957.29 598.08S991.73 582.74 1019.48 582.74S1053.52 592.55 1081.68 592.55S1115.51 587.46 1143.87 587.46S1176.84 604.54 1206.06 604.54S1239.78 598.92 1268.26 598.92S1301.77 591.13 1330.45 591.13S1364.72 596.49 1392.65 596.49S1426.42 599.31 1454.84 599.31S1488.7 590.46 1517.03 590.46S1549.75 603.82 1579.23 603.82S1610.56 605.19 1641.42 605.19S1672.64 610.21 1703.61 610.21S1735.34 611.94 1765.81 611.94S1798.36 608.21 1828 608.21S1859.2 606.16 1890.19 606.16L1828 1001 L-100 1001 Z" fill="#fdf4af" stroke-width="0">
  <animate attributeName="d" dur="12.499999999999998s" repeatCount="indefinite" values="M-100 616.22C-66.99 601.24 -67.94 591.02 -37.81 591.02S-4.76 606.29 24.39 606.29S58.87 588.02 86.58 588.02S118.65 608.67 148.77 608.67S182.7 599.28 210.97 599.28S243.43 585.58 273.16 585.58S307.55 599.73 335.35 599.73S368.49 588.49 397.55 588.49S430.47 583.1 459.74 583.1S492.91 608.97 521.94 608.97S554.54 581.55 584.13 581.55S615.37 614.45 646.32 614.45S678.3 592.46 708.52 592.46S741.41 614.11 770.71 614.11S803.82 584.65 832.9 584.65S867.1 603.56 895.1 603.56S929.05 598.08 957.29 598.08S991.73 582.74 1019.48 582.74S1053.52 592.55 1081.68 592.55S1115.51 587.46 1143.87 587.46S1176.84 604.54 1206.06 604.54S1239.78 598.92 1268.26 598.92S1301.77 591.13 1330.45 591.13S1364.72 596.49 1392.65 596.49S1426.42 599.31 1454.84 599.31S1488.7 590.46 1517.03 590.46S1549.75 603.82 1579.23 603.82S1610.56 605.19 1641.42 605.19S1672.64 610.21 1703.61 610.21S1735.34 611.94 1765.81 611.94S1798.36 608.21 1828 608.21S1859.2 606.16 1890.19 606.16L1828 1001 L-100 1001 Z;M-100 601.72C-66.73 608.14 -66.4 587.75 -37.81 587.75S-5.01 603.6 24.39 603.6S58.89 590.12 86.58 590.12S120.34 613.38 148.77 613.38S181.52 612.12 210.97 612.12S244.2 595.63 273.16 595.63S306.58 587.95 335.35 587.95S366.94 605.61 397.55 605.61S429.45 596.18 459.74 596.18S491.19 588.98 521.94 588.98S554.61 615.72 584.13 615.72S616.98 610.78 646.32 610.78S678.17 588.63 708.52 588.63S742.38 591.08 770.71 591.08S803.03 599.14 832.9 599.14S866.7 593.03 895.1 593.03S926.43 606.52 957.29 606.52S990.94 604.75 1019.48 604.75S1052.56 591.58 1081.68 591.58S1113.48 591.14 1143.87 591.14S1176.82 603.54 1206.06 603.54S1239.85 586.96 1268.26 586.96S1301.55 612.09 1330.45 612.09S1364.65 592.54 1392.65 592.54S1426.05 582.64 1454.84 582.64S1487.46 591.88 1517.03 591.88S1548.83 605.49 1579.23 605.49S1612.3 592.73 1641.42 592.73S1674.2 589.03 1703.61 589.03S1737.46 598.84 1765.81 598.84S1800.24 605.37 1828 605.37S1860.32 605.01 1890.19 605.01L1828 1001 L-100 1001 Z;M-100 616.22C-66.99 601.24 -67.94 591.02 -37.81 591.02S-4.76 606.29 24.39 606.29S58.87 588.02 86.58 588.02S118.65 608.67 148.77 608.67S182.7 599.28 210.97 599.28S243.43 585.58 273.16 585.58S307.55 599.73 335.35 599.73S368.49 588.49 397.55 588.49S430.47 583.1 459.74 583.1S492.91 608.97 521.94 608.97S554.54 581.55 584.13 581.55S615.37 614.45 646.32 614.45S678.3 592.46 708.52 592.46S741.41 614.11 770.71 614.11S803.82 584.65 832.9 584.65S867.1 603.56 895.1 603.56S929.05 598.08 957.29 598.08S991.73 582.74 1019.48 582.74S1053.52 592.55 1081.68 592.55S1115.51 587.46 1143.87 587.46S1176.84 604.54 1206.06 604.54S1239.78 598.92 1268.26 598.92S1301.77 591.13 1330.45 591.13S1364.72 596.49 1392.65 596.49S1426.42 599.31 1454.84 599.31S1488.7 590.46 1517.03 590.46S1549.75 603.82 1579.23 603.82S1610.56 605.19 1641.42 605.19S1672.64 610.21 1703.61 610.21S1735.34 611.94 1765.81 611.94S1798.36 608.21 1828 608.21S1859.2 606.16 1890.19 606.16L1828 1001 L-100 1001 Z"/>
  <animateTransform attributeName="transform" type="translate" dur="12.499999999999998s" begin="0s" repeatCount="indefinite" values="0;10;0" calcMode="spline" keySplines="0.3 0 0.7 1;0.3 0 0.7 1"/>
</path><path d="M-100 629.77C-66.48 646.46 -65.09 627.53 -35.43 627.53S-0.26 622.09 29.15 622.09S61.89 620.51 93.72 620.51S128.74 638.54 158.3 638.54S191.37 633.5 222.87 633.5S255.29 630.54 287.44 630.54S322.78 651.19 352.02 651.19S387.83 629.41 416.59 629.41S451.4 624.51 481.17 624.51S514.26 627.39 545.74 627.39S578.15 623.64 610.32 623.64S642.98 618.89 674.89 618.89S708.88 627.62 739.46 627.62S774.21 635.2 804.04 635.2S836.46 622.03 868.61 622.03S903.99 617.59 933.19 617.59S968.19 641.93 997.76 641.93S1031.33 642.76 1062.33 642.76S1094.9 651.81 1126.91 651.81S1162.72 619.58 1191.48 619.58S1225.24 619.99 1256.06 619.99S1291.44 633.82 1320.63 633.82S1354.65 625.68 1385.21 625.68S1420.05 636.42 1449.78 636.42S1482.11 649.45 1514.35 649.45S1548.61 619.79 1578.93 619.79S1611.99 620.63 1643.5 620.63S1676.91 622.2 1708.08 622.2S1741.68 643.69 1772.65 643.69S1806.48 643.28 1837.22 643.28L1828 1001 L-100 1001 Z" fill="#faeca5" stroke-width="0">
  <animate attributeName="d" dur="10.714285714285714s" repeatCount="indefinite" values="M-100 629.77C-66.48 646.46 -65.09 627.53 -35.43 627.53S-0.26 622.09 29.15 622.09S61.89 620.51 93.72 620.51S128.74 638.54 158.3 638.54S191.37 633.5 222.87 633.5S255.29 630.54 287.44 630.54S322.78 651.19 352.02 651.19S387.83 629.41 416.59 629.41S451.4 624.51 481.17 624.51S514.26 627.39 545.74 627.39S578.15 623.64 610.32 623.64S642.98 618.89 674.89 618.89S708.88 627.62 739.46 627.62S774.21 635.2 804.04 635.2S836.46 622.03 868.61 622.03S903.99 617.59 933.19 617.59S968.19 641.93 997.76 641.93S1031.33 642.76 1062.33 642.76S1094.9 651.81 1126.91 651.81S1162.72 619.58 1191.48 619.58S1225.24 619.99 1256.06 619.99S1291.44 633.82 1320.63 633.82S1354.65 625.68 1385.21 625.68S1420.05 636.42 1449.78 636.42S1482.11 649.45 1514.35 649.45S1548.61 619.79 1578.93 619.79S1611.99 620.63 1643.5 620.63S1676.91 622.2 1708.08 622.2S1741.68 643.69 1772.65 643.69S1806.48 643.28 1837.22 643.28L1828 1001 L-100 1001 Z;M-100 641.62C-65.64 623.02 -65.41 629.21 -35.43 629.21S-0.98 627.09 29.15 627.09S63.47 626.18 93.72 626.18S126.99 637.71 158.3 637.71S192.5 636.27 222.87 636.27S258.41 647.82 287.44 647.82S321.06 651.68 352.02 651.68S385.16 648.15 416.59 648.15S451 642.59 481.17 642.59S515.11 633.81 545.74 633.81S580.74 631.37 610.32 631.37S642.76 623.71 674.89 623.71S708.72 617.35 739.46 617.35S774.72 629.74 804.04 629.74S838.83 650.85 868.61 650.85S901.19 633.55 933.19 633.55S968.14 639.11 997.76 639.11S1032.64 619.61 1062.33 619.61S1095.45 633.87 1126.91 633.87S1162.47 631.77 1191.48 631.77S1224.24 633.94 1256.06 633.94S1291.09 633.94 1320.63 633.94S1353.22 652.74 1385.21 652.74S1420.53 617.41 1449.78 617.41S1484.5 618.3 1514.35 618.3S1549.74 620.11 1578.93 620.11S1612.42 640.83 1643.5 640.83S1677.11 648.48 1708.08 648.48S1742.33 629.18 1772.65 629.18S1806.18 643.18 1837.22 643.18L1828 1001 L-100 1001 Z;M-100 629.77C-66.48 646.46 -65.09 627.53 -35.43 627.53S-0.26 622.09 29.15 622.09S61.89 620.51 93.72 620.51S128.74 638.54 158.3 638.54S191.37 633.5 222.87 633.5S255.29 630.54 287.44 630.54S322.78 651.19 352.02 651.19S387.83 629.41 416.59 629.41S451.4 624.51 481.17 624.51S514.26 627.39 545.74 627.39S578.15 623.64 610.32 623.64S642.98 618.89 674.89 618.89S708.88 627.62 739.46 627.62S774.21 635.2 804.04 635.2S836.46 622.03 868.61 622.03S903.99 617.59 933.19 617.59S968.19 641.93 997.76 641.93S1031.33 642.76 1062.33 642.76S1094.9 651.81 1126.91 651.81S1162.72 619.58 1191.48 619.58S1225.24 619.99 1256.06 619.99S1291.44 633.82 1320.63 633.82S1354.65 625.68 1385.21 625.68S1420.05 636.42 1449.78 636.42S1482.11 649.45 1514.35 649.45S1548.61 619.79 1578.93 619.79S1611.99 620.63 1643.5 620.63S1676.91 622.2 1708.08 622.2S1741.68 643.69 1772.65 643.69S1806.48 643.28 1837.22 643.28L1828 1001 L-100 1001 Z"/>
  <animateTransform attributeName="transform" type="translate" dur="10.714285714285714s" begin="-1.530612244897959s" repeatCount="indefinite" values="0;10;0" calcMode="spline" keySplines="0.3 0 0.7 1;0.3 0 0.7 1"/>
</path><path d="M-100 678.48C-63.32 666.67 -66.01 676.71 -32.86 676.71S3.09 669.46 34.29 669.46S69.5 670.61 101.43 670.61S136.11 685.64 168.58 685.64S204.5 676.44 235.72 676.44S270.08 682.88 302.87 682.88S339.41 672.28 370.01 672.28S406.41 653.36 437.15 653.36S472.98 661.89 504.3 661.89S539 666.61 571.44 666.61S605.61 662.07 638.59 662.07S674.07 665.5 705.73 665.5S739.87 689.83 772.88 689.83S809.09 666.54 840.02 666.54S876.42 657.83 907.16 657.83S942.49 675.34 974.31 675.34S1011.38 659.23 1041.45 659.23S1078.11 680.18 1108.6 680.18S1142.56 666.61 1175.74 666.61S1209.34 652.68 1242.89 652.68S1279.26 677.09 1310.03 677.09S1346.44 673.66 1377.17 673.66S1411.8 675.1 1444.32 675.1S1480.97 678.86 1511.46 678.86S1547.7 686.81 1578.61 686.81S1612.43 672.04 1645.75 672.04S1680.47 686.69 1712.9 686.69S1748.41 655.89 1780.04 655.89S1816.33 666.95 1847.18 666.95L1828 1001 L-100 1001 Z" fill="#f8e39b" stroke-width="0">
  <animate attributeName="d" dur="8.928571428571427s" repeatCount="indefinite" values="M-100 678.48C-63.32 666.67 -66.01 676.71 -32.86 676.71S3.09 669.46 34.29 669.46S69.5 670.61 101.43 670.61S136.11 685.64 168.58 685.64S204.5 676.44 235.72 676.44S270.08 682.88 302.87 682.88S339.41 672.28 370.01 672.28S406.41 653.36 437.15 653.36S472.98 661.89 504.3 661.89S539 666.61 571.44 666.61S605.61 662.07 638.59 662.07S674.07 665.5 705.73 665.5S739.87 689.83 772.88 689.83S809.09 666.54 840.02 666.54S876.42 657.83 907.16 657.83S942.49 675.34 974.31 675.34S1011.38 659.23 1041.45 659.23S1078.11 680.18 1108.6 680.18S1142.56 666.61 1175.74 666.61S1209.34 652.68 1242.89 652.68S1279.26 677.09 1310.03 677.09S1346.44 673.66 1377.17 673.66S1411.8 675.1 1444.32 675.1S1480.97 678.86 1511.46 678.86S1547.7 686.81 1578.61 686.81S1612.43 672.04 1645.75 672.04S1680.47 686.69 1712.9 686.69S1748.41 655.89 1780.04 655.89S1816.33 666.95 1847.18 666.95L1828 1001 L-100 1001 Z;M-100 682.88C-64.87 679.88 -63.87 658.72 -32.86 658.72S2.42 667.48 34.29 667.48S70.56 665.84 101.43 665.84S136.59 678.87 168.58 678.87S202.84 659.83 235.72 659.83S271.69 684.78 302.87 684.78S339.8 679.32 370.01 679.32S406.15 661.45 437.15 661.45S474.12 682.48 504.3 682.48S538.39 662.22 571.44 662.22S608.22 684.45 638.59 684.45S675.73 675.36 705.73 675.36S741.81 661.69 772.88 661.69S809.1 669.96 840.02 669.96S876.35 683.57 907.16 683.57S944.09 683.69 974.31 683.69S1009.81 688.35 1041.45 688.35S1076.36 663.9 1108.6 663.9S1142.4 682.01 1175.74 682.01S1209.37 665.17 1242.89 665.17S1279.76 683.73 1310.03 683.73S1346.28 685.35 1377.17 685.35S1413.53 669.01 1444.32 669.01S1478.16 671.66 1511.46 671.66S1546.49 670.85 1578.61 670.85S1615.26 676.31 1645.75 676.31S1679.94 655.22 1712.9 655.22S1746.89 658.99 1780.04 658.99S1815.28 678.45 1847.18 678.45L1828 1001 L-100 1001 Z;M-100 678.48C-63.32 666.67 -66.01 676.71 -32.86 676.71S3.09 669.46 34.29 669.46S69.5 670.61 101.43 670.61S136.11 685.64 168.58 685.64S204.5 676.44 235.72 676.44S270.08 682.88 302.87 682.88S339.41 672.28 370.01 672.28S406.41 653.36 437.15 653.36S472.98 661.89 504.3 661.89S539 666.61 571.44 666.61S605.61 662.07 638.59 662.07S674.07 665.5 705.73 665.5S739.87 689.83 772.88 689.83S809.09 666.54 840.02 666.54S876.42 657.83 907.16 657.83S942.49 675.34 974.31 675.34S1011.38 659.23 1041.45 659.23S1078.11 680.18 1108.6 680.18S1142.56 666.61 1175.74 666.61S1209.34 652.68 1242.89 652.68S1279.26 677.09 1310.03 677.09S1346.44 673.66 1377.17 673.66S1411.8 675.1 1444.32 675.1S1480.97 678.86 1511.46 678.86S1547.7 686.81 1578.61 686.81S1612.43 672.04 1645.75 672.04S1680.47 686.69 1712.9 686.69S1748.41 655.89 1780.04 655.89S1816.33 666.95 1847.18 666.95L1828 1001 L-100 1001 Z"/>
  <animateTransform attributeName="transform" type="translate" dur="8.928571428571427s" begin="-2.551020408163265s" repeatCount="indefinite" values="0;10;0" calcMode="spline" keySplines="0.3 0 0.7 1;0.3 0 0.7 1"/>
</path><path d="M-100 701.23C-63.41 702.99 -63.6 695.41 -30.07 695.41S8.17 723.21 39.85 723.21S78.05 708.82 109.78 708.82S145.58 714.97 179.71 714.97S215.04 715.89 249.64 715.89S286.08 699.15 319.56 699.15S354.81 718.56 389.49 718.56S425.07 713.55 459.42 713.55S494.58 692.33 529.35 692.33S567.5 713.97 599.27 713.97S635.34 726.2 669.2 726.2S707.24 689.99 739.13 689.99S774.8 715.27 809.06 715.27S844.36 691.43 878.98 691.43S917.29 719.5 948.91 719.5S987.44 694.11 1018.84 694.11S1055.2 713.07 1088.77 713.07S1124.45 708.78 1158.69 708.78S1196.5 692.28 1228.62 692.28S1266 696.21 1298.55 696.21S1336.14 702.34 1368.48 702.34S1405.54 721.29 1438.4 721.29S1476.67 724.15 1508.33 724.15S1543.3 691.39 1578.26 691.39S1613.58 700.65 1648.19 700.65S1683.19 705.84 1718.11 705.84S1753.36 695.19 1788.04 695.19S1825.91 702.68 1857.97 702.68L1828 1001 L-100 1001 Z" fill="#f5db92" stroke-width="0">
  <animate attributeName="d" dur="7.142857142857142s" repeatCount="indefinite" values="M-100 701.23C-63.41 702.99 -63.6 695.41 -30.07 695.41S8.17 723.21 39.85 723.21S78.05 708.82 109.78 708.82S145.58 714.97 179.71 714.97S215.04 715.89 249.64 715.89S286.08 699.15 319.56 699.15S354.81 718.56 389.49 718.56S425.07 713.55 459.42 713.55S494.58 692.33 529.35 692.33S567.5 713.97 599.27 713.97S635.34 726.2 669.2 726.2S707.24 689.99 739.13 689.99S774.8 715.27 809.06 715.27S844.36 691.43 878.98 691.43S917.29 719.5 948.91 719.5S987.44 694.11 1018.84 694.11S1055.2 713.07 1088.77 713.07S1124.45 708.78 1158.69 708.78S1196.5 692.28 1228.62 692.28S1266 696.21 1298.55 696.21S1336.14 702.34 1368.48 702.34S1405.54 721.29 1438.4 721.29S1476.67 724.15 1508.33 724.15S1543.3 691.39 1578.26 691.39S1613.58 700.65 1648.19 700.65S1683.19 705.84 1718.11 705.84S1753.36 695.19 1788.04 695.19S1825.91 702.68 1857.97 702.68L1828 1001 L-100 1001 Z;M-100 705.78C-62.27 698.27 -62.19 717.2 -30.07 717.2S5.98 713.1 39.85 713.1S76.71 701.02 109.78 701.02S147.8 706.71 179.71 706.71S215 708.13 249.64 708.13S286.03 690.47 319.56 690.47S355.12 724.81 389.49 724.81S426.3 715.48 459.42 715.48S496.15 713.96 529.35 713.96S564.59 702.41 599.27 702.41S635.55 725.05 669.2 725.05S704.56 721.31 739.13 721.31S776.54 707.27 809.06 707.27S846.9 703.98 878.98 703.98S915.49 698.29 948.91 698.29S986.09 698.15 1018.84 698.15S1055.45 698.59 1088.77 698.59S1123.93 689.82 1158.69 689.82S1193.91 721.88 1228.62 721.88S1266.93 705.6 1298.55 705.6S1335.23 707.62 1368.48 707.62S1406.44 717.35 1438.4 717.35S1475.43 726.05 1508.33 726.05S1546.61 694.72 1578.26 694.72S1614.59 699.46 1648.19 699.46S1685.25 706.94 1718.11 706.94S1754.76 702.01 1788.04 702.01S1825.2 711.29 1857.97 711.29L1828 1001 L-100 1001 Z;M-100 701.23C-63.41 702.99 -63.6 695.41 -30.07 695.41S8.17 723.21 39.85 723.21S78.05 708.82 109.78 708.82S145.58 714.97 179.71 714.97S215.04 715.89 249.64 715.89S286.08 699.15 319.56 699.15S354.81 718.56 389.49 718.56S425.07 713.55 459.42 713.55S494.58 692.33 529.35 692.33S567.5 713.97 599.27 713.97S635.34 726.2 669.2 726.2S707.24 689.99 739.13 689.99S774.8 715.27 809.06 715.27S844.36 691.43 878.98 691.43S917.29 719.5 948.91 719.5S987.44 694.11 1018.84 694.11S1055.2 713.07 1088.77 713.07S1124.45 708.78 1158.69 708.78S1196.5 692.28 1228.62 692.28S1266 696.21 1298.55 696.21S1336.14 702.34 1368.48 702.34S1405.54 721.29 1438.4 721.29S1476.67 724.15 1508.33 724.15S1543.3 691.39 1578.26 691.39S1613.58 700.65 1648.19 700.65S1683.19 705.84 1718.11 705.84S1753.36 695.19 1788.04 695.19S1825.91 702.68 1857.97 702.68L1828 1001 L-100 1001 Z"/>
  <animateTransform attributeName="transform" type="translate" dur="7.142857142857142s" begin="-3.061224489795918s" repeatCount="indefinite" values="0;10;0" calcMode="spline" keySplines="0.3 0 0.7 1;0.3 0 0.7 1"/>
</path><path d="M-100 745.04C-61.88 756.53 -63.12 736.93 -27.05 736.93S10.16 738.94 45.9 738.94S82.77 737.42 118.85 737.42S156.76 737.72 191.81 737.72S230.65 734.97 264.76 734.97S302.81 757.63 337.71 757.63S377.47 739.97 410.66 739.97S448.58 759.28 483.61 759.28S522.48 739.11 556.56 739.11S593.88 727.97 629.51 727.97S667.61 747.6 702.46 747.6S740.51 755.81 775.42 755.81S814.23 739.81 848.37 739.81S885.89 725.68 921.32 725.68S960.64 732.44 994.27 732.44S1032.63 751.32 1067.22 751.32S1106.32 741 1140.17 741S1179.07 726.9 1213.12 726.9S1250.62 761.82 1286.08 761.82S1325.16 741.25 1359.03 741.25S1396.05 733.34 1431.98 733.34S1470.83 736.71 1504.93 736.71S1542.09 747.8 1577.88 747.8S1616.7 743.5 1650.83 743.5S1689.62 763.18 1723.78 763.18S1761.8 742.83 1796.74 742.83S1835.83 758.71 1869.69 758.71L1828 1001 L-100 1001 Z" fill="#f3d288" stroke-width="0">
  <animate attributeName="d" dur="5.357142857142857s" repeatCount="indefinite" values="M-100 745.04C-61.88 756.53 -63.12 736.93 -27.05 736.93S10.16 738.94 45.9 738.94S82.77 737.42 118.85 737.42S156.76 737.72 191.81 737.72S230.65 734.97 264.76 734.97S302.81 757.63 337.71 757.63S377.47 739.97 410.66 739.97S448.58 759.28 483.61 759.28S522.48 739.11 556.56 739.11S593.88 727.97 629.51 727.97S667.61 747.6 702.46 747.6S740.51 755.81 775.42 755.81S814.23 739.81 848.37 739.81S885.89 725.68 921.32 725.68S960.64 732.44 994.27 732.44S1032.63 751.32 1067.22 751.32S1106.32 741 1140.17 741S1179.07 726.9 1213.12 726.9S1250.62 761.82 1286.08 761.82S1325.16 741.25 1359.03 741.25S1396.05 733.34 1431.98 733.34S1470.83 736.71 1504.93 736.71S1542.09 747.8 1577.88 747.8S1616.7 743.5 1650.83 743.5S1689.62 763.18 1723.78 763.18S1761.8 742.83 1796.74 742.83S1835.83 758.71 1869.69 758.71L1828 1001 L-100 1001 Z;M-100 752.8C-62.46 724.25 -62.99 750.73 -27.05 750.73S11.37 727.72 45.9 727.72S84.72 759.82 118.85 759.82S157.03 750.79 191.81 750.79S229.6 758.54 264.76 758.54S303.86 744.55 337.71 744.55S374.22 734.95 410.66 734.95S450.53 763.22 483.61 763.22S521.38 752 556.56 752S596.13 727.41 629.51 727.41S669.16 745.93 702.46 745.93S739.12 757.63 775.42 757.63S813.14 758.75 848.37 758.75S887.5 756.69 921.32 756.69S957.86 738.05 994.27 738.05S1032.96 759.1 1067.22 759.1S1106.25 730.72 1140.17 730.72S1177.12 739.9 1213.12 739.9S1252.24 750.56 1286.08 750.56S1322.88 734.48 1359.03 734.48S1397.75 757.62 1431.98 757.62S1469.62 746.65 1504.93 746.65S1543.01 730.21 1577.88 730.21S1617.7 753.55 1650.83 753.55S1688.51 751.18 1723.78 751.18S1763.58 727.92 1796.74 727.92S1833.95 747.06 1869.69 747.06L1828 1001 L-100 1001 Z;M-100 745.04C-61.88 756.53 -63.12 736.93 -27.05 736.93S10.16 738.94 45.9 738.94S82.77 737.42 118.85 737.42S156.76 737.72 191.81 737.72S230.65 734.97 264.76 734.97S302.81 757.63 337.71 757.63S377.47 739.97 410.66 739.97S448.58 759.28 483.61 759.28S522.48 739.11 556.56 739.11S593.88 727.97 629.51 727.97S667.61 747.6 702.46 747.6S740.51 755.81 775.42 755.81S814.23 739.81 848.37 739.81S885.89 725.68 921.32 725.68S960.64 732.44 994.27 732.44S1032.63 751.32 1067.22 751.32S1106.32 741 1140.17 741S1179.07 726.9 1213.12 726.9S1250.62 761.82 1286.08 761.82S1325.16 741.25 1359.03 741.25S1396.05 733.34 1431.98 733.34S1470.83 736.71 1504.93 736.71S1542.09 747.8 1577.88 747.8S1616.7 743.5 1650.83 743.5S1689.62 763.18 1723.78 763.18S1761.8 742.83 1796.74 742.83S1835.83 758.71 1869.69 758.71L1828 1001 L-100 1001 Z"/>
  <animateTransform attributeName="transform" type="translate" dur="5.357142857142857s" begin="-3.061224489795918s" repeatCount="indefinite" values="0;10;0" calcMode="spline" keySplines="0.3 0 0.7 1;0.3 0 0.7 1"/>
</path><path d="M-100 781.79C-61.19 797.4 -61.6 800.07 -23.75 800.07S17.89 777.37 52.5 777.37S91.68 794.8 128.75 794.8S167.8 766.64 204.99 766.64S245.63 793.71 281.24 793.71S321.6 787.02 357.49 787.02S396.28 784.6 433.74 784.6S473.45 782.41 509.99 782.41S549.91 767.7 586.24 767.7S625.45 788.73 662.49 788.73S702.49 786.82 738.73 786.82S777.59 776.53 814.98 776.53S853.25 774.06 891.23 774.06S931.09 772.4 967.48 772.4S1007.28 778.18 1043.73 778.18S1084.16 778 1119.98 778S1161.37 793.2 1196.23 793.2S1234.54 776.82 1272.47 776.82S1313.9 764.75 1348.72 764.75S1390.34 761.3 1424.97 761.3S1464.98 792.63 1501.22 792.63S1542.75 765.63 1577.47 765.63S1616.63 799.51 1653.72 799.51S1694.01 760.66 1729.97 760.66S1769.63 770.74 1806.21 770.74S1847.43 760.72 1882.46 760.72L1828 1001 L-100 1001 Z" fill="#f1ca80" stroke-width="0">
  <animate attributeName="d" dur="3.571428571428571s" repeatCount="indefinite" values="M-100 781.79C-61.19 797.4 -61.6 800.07 -23.75 800.07S17.89 777.37 52.5 777.37S91.68 794.8 128.75 794.8S167.8 766.64 204.99 766.64S245.63 793.71 281.24 793.71S321.6 787.02 357.49 787.02S396.28 784.6 433.74 784.6S473.45 782.41 509.99 782.41S549.91 767.7 586.24 767.7S625.45 788.73 662.49 788.73S702.49 786.82 738.73 786.82S777.59 776.53 814.98 776.53S853.25 774.06 891.23 774.06S931.09 772.4 967.48 772.4S1007.28 778.18 1043.73 778.18S1084.16 778 1119.98 778S1161.37 793.2 1196.23 793.2S1234.54 776.82 1272.47 776.82S1313.9 764.75 1348.72 764.75S1390.34 761.3 1424.97 761.3S1464.98 792.63 1501.22 792.63S1542.75 765.63 1577.47 765.63S1616.63 799.51 1653.72 799.51S1694.01 760.66 1729.97 760.66S1769.63 770.74 1806.21 770.74S1847.43 760.72 1882.46 760.72L1828 1001 L-100 1001 Z;M-100 791.79C-60.93 794.55 -60.95 797.6 -23.75 797.6S17.87 794.78 52.5 794.78S92.24 798.79 128.75 798.79S169.04 788.54 204.99 788.54S245.5 774.7 281.24 774.7S322.79 793.44 357.49 793.44S397.42 785.12 433.74 785.12S473.73 777.57 509.99 777.57S549.13 792.92 586.24 792.92S627 761.17 662.49 761.17S703.33 785.05 738.73 785.05S778.42 787.36 814.98 787.36S853.11 774.71 891.23 774.71S931.86 773.37 967.48 773.37S1006.27 790.06 1043.73 790.06S1083.83 772.85 1119.98 772.85S1158.57 784.64 1196.23 784.64S1237.62 782.23 1272.47 782.23S1313.21 778.87 1348.72 778.87S1387.7 776.97 1424.97 776.97S1463.14 786.26 1501.22 786.26S1541.37 768.69 1577.47 768.69S1617.52 775.18 1653.72 775.18S1692.13 794.77 1729.97 794.77S1769.2 785.56 1806.21 785.56S1845.97 788.65 1882.46 788.65L1828 1001 L-100 1001 Z;M-100 781.79C-61.19 797.4 -61.6 800.07 -23.75 800.07S17.89 777.37 52.5 777.37S91.68 794.8 128.75 794.8S167.8 766.64 204.99 766.64S245.63 793.71 281.24 793.71S321.6 787.02 357.49 787.02S396.28 784.6 433.74 784.6S473.45 782.41 509.99 782.41S549.91 767.7 586.24 767.7S625.45 788.73 662.49 788.73S702.49 786.82 738.73 786.82S777.59 776.53 814.98 776.53S853.25 774.06 891.23 774.06S931.09 772.4 967.48 772.4S1007.28 778.18 1043.73 778.18S1084.16 778 1119.98 778S1161.37 793.2 1196.23 793.2S1234.54 776.82 1272.47 776.82S1313.9 764.75 1348.72 764.75S1390.34 761.3 1424.97 761.3S1464.98 792.63 1501.22 792.63S1542.75 765.63 1577.47 765.63S1616.63 799.51 1653.72 799.51S1694.01 760.66 1729.97 760.66S1769.63 770.74 1806.21 770.74S1847.43 760.72 1882.46 760.72L1828 1001 L-100 1001 Z"/>
  <animateTransform attributeName="transform" type="translate" dur="3.571428571428571s" begin="-2.551020408163265s" repeatCount="indefinite" values="0;10;0" calcMode="spline" keySplines="0.3 0 0.7 1;0.3 0 0.7 1"/>
</path><path d="M-100 813.86C-59.08 816.14 -56.76 814.29 -20.14 814.29S21.34 810 59.72 810S102.3 826 139.57 826S180.24 827.71 219.43 827.71S261.71 820.85 299.29 820.85S342.68 828.46 379.15 828.46S421.37 835.28 459.01 835.28S501.58 814.1 538.86 814.1S579.96 836.88 618.72 836.88S661.01 822.99 698.58 822.99S739.91 834.63 778.44 834.63S820.88 807.83 858.3 807.83S901.28 825.62 938.15 825.62S978.29 829.23 1018.01 829.23S1061.41 813.25 1097.87 813.25S1139.34 805.43 1177.73 805.43S1220.54 806.27 1257.59 806.27S1300.62 812.03 1337.44 812.03S1378.3 821.08 1417.3 821.08S1459.15 827.2 1497.16 827.2S1539.62 822.52 1577.02 822.52S1618.27 804.1 1656.88 804.1S1698.2 812.26 1736.73 812.26S1777 807.82 1816.59 807.82S1858.05 820.15 1896.45 820.15L1828 1001 L-100 1001 Z" fill="#efc178" stroke-width="0">
  <animate attributeName="d" dur="1.7857142857142856s" repeatCount="indefinite" values="M-100 813.86C-59.08 816.14 -56.76 814.29 -20.14 814.29S21.34 810 59.72 810S102.3 826 139.57 826S180.24 827.71 219.43 827.71S261.71 820.85 299.29 820.85S342.68 828.46 379.15 828.46S421.37 835.28 459.01 835.28S501.58 814.1 538.86 814.1S579.96 836.88 618.72 836.88S661.01 822.99 698.58 822.99S739.91 834.63 778.44 834.63S820.88 807.83 858.3 807.83S901.28 825.62 938.15 825.62S978.29 829.23 1018.01 829.23S1061.41 813.25 1097.87 813.25S1139.34 805.43 1177.73 805.43S1220.54 806.27 1257.59 806.27S1300.62 812.03 1337.44 812.03S1378.3 821.08 1417.3 821.08S1459.15 827.2 1497.16 827.2S1539.62 822.52 1577.02 822.52S1618.27 804.1 1656.88 804.1S1698.2 812.26 1736.73 812.26S1777 807.82 1816.59 807.82S1858.05 820.15 1896.45 820.15L1828 1001 L-100 1001 Z;M-100 803.04C-57.34 815.61 -58.61 814.29 -20.14 814.29S21.29 796.44 59.72 796.44S100.81 813.51 139.57 813.51S180.71 798.31 219.43 798.31S262.72 826.96 299.29 826.96S340.48 802.26 379.15 802.26S421.19 823.2 459.01 823.2S499.52 819.72 538.86 819.72S580.4 819.36 618.72 819.36S660.77 829.49 698.58 829.49S740.08 832.83 778.44 832.83S818.55 812.36 858.3 812.36S898.72 823.9 938.15 823.9S978.61 825.72 1018.01 825.72S1061.01 813.41 1097.87 813.41S1140.16 806.62 1177.73 806.62S1219.88 830.25 1257.59 830.25S1299.25 813.12 1337.44 813.12S1380.11 801.61 1417.3 801.61S1458.96 801.35 1497.16 801.35S1537.26 803.93 1577.02 803.93S1618.31 827.35 1656.88 827.35S1698.1 806.78 1736.73 806.78S1778.23 825.1 1816.59 825.1S1858.37 836.33 1896.45 836.33L1828 1001 L-100 1001 Z;M-100 813.86C-59.08 816.14 -56.76 814.29 -20.14 814.29S21.34 810 59.72 810S102.3 826 139.57 826S180.24 827.71 219.43 827.71S261.71 820.85 299.29 820.85S342.68 828.46 379.15 828.46S421.37 835.28 459.01 835.28S501.58 814.1 538.86 814.1S579.96 836.88 618.72 836.88S661.01 822.99 698.58 822.99S739.91 834.63 778.44 834.63S820.88 807.83 858.3 807.83S901.28 825.62 938.15 825.62S978.29 829.23 1018.01 829.23S1061.41 813.25 1097.87 813.25S1139.34 805.43 1177.73 805.43S1220.54 806.27 1257.59 806.27S1300.62 812.03 1337.44 812.03S1378.3 821.08 1417.3 821.08S1459.15 827.2 1497.16 827.2S1539.62 822.52 1577.02 822.52S1618.27 804.1 1656.88 804.1S1698.2 812.26 1736.73 812.26S1777 807.82 1816.59 807.82S1858.05 820.15 1896.45 820.15L1828 1001 L-100 1001 Z"/>
  <animateTransform attributeName="transform" type="translate" dur="1.7857142857142856s" begin="-1.530612244897959s" repeatCount="indefinite" values="0;10;0" calcMode="spline" keySplines="0.3 0 0.7 1;0.3 0 0.7 1"/>
</path></g>
</svg>
